<svg width="156" height="56" viewBox="0 0 156 56" fill="none" xmlns="http://www.w3.org/2000/svg">
<g clip-path="url(#clip0_1_1172)">
<path d="M87.3502 34.4829C86.9997 35.2937 86.5849 36.0401 86.1043 36.7264C85.4492 37.6619 84.9129 38.3094 84.4995 38.669C83.8587 39.2592 83.1721 39.5615 82.4369 39.5787C81.9091 39.5787 81.2726 39.4283 80.5317 39.1231C79.7883 38.8194 79.1052 38.669 78.4806 38.669C77.8255 38.669 77.1229 38.8194 76.3714 39.1231C75.6187 39.4283 75.0124 39.5873 74.5488 39.6031C73.8438 39.6331 73.1411 39.3223 72.4397 38.669C71.992 38.2779 71.432 37.6074 70.7611 36.6576C70.0414 35.6433 69.4497 34.4671 68.9861 33.1262C68.4896 31.6778 68.2407 30.2753 68.2407 28.9175C68.2407 27.3621 68.5763 26.0206 69.2484 24.8964C69.7766 23.9934 70.4794 23.2811 71.3589 22.7582C72.2384 22.2353 73.1887 21.9688 74.2121 21.9518C74.7721 21.9518 75.5065 22.1253 76.419 22.4662C77.329 22.8084 77.9133 22.9818 78.1695 22.9818C78.361 22.9818 79.0101 22.779 80.1105 22.3746C81.151 21.9995 82.0293 21.8442 82.7487 21.9054C84.6983 22.063 86.163 22.8327 87.137 24.2195C85.3935 25.2776 84.531 26.7597 84.5481 28.6609C84.5639 30.1418 85.1002 31.3741 86.1544 32.3526C86.6321 32.8067 87.1657 33.1577 87.7592 33.407C87.6305 33.7809 87.4946 34.1391 87.3502 34.4829ZM82.8789 16.8603C82.8789 18.021 82.4555 19.1048 81.6116 20.1079C80.5932 21.3004 79.3614 21.9895 78.0256 21.8807C78.0086 21.7415 77.9987 21.5949 77.9987 21.4409C77.9987 20.3266 78.483 19.1341 79.3431 18.1591C79.7725 17.6654 80.3186 17.2549 80.9808 16.9275C81.6417 16.6049 82.2667 16.4265 82.8546 16.396C82.8717 16.5511 82.8789 16.7063 82.8789 16.8603V16.8603Z" fill="black"/>
</g>
<path d="M9.87706 54.7821L9.49438 55.706L9.87706 54.7821ZM154.782 46.1229L153.858 45.7402L154.782 46.1229ZM146.123 54.7821L145.74 53.8582L146.123 54.7821ZM154.782 9.87706L155.706 9.49438L154.782 9.87706ZM24 1H132V-1H24V1ZM155 24V32H157V24H155ZM132 55H24V57H132V55ZM1 32V24H-1V32H1ZM24 55C20.2588 55 17.503 54.9995 15.3136 54.8501C13.1332 54.7013 11.5878 54.4083 10.2597 53.8582L9.49438 55.706C11.1067 56.3738 12.8952 56.6897 15.1774 56.8454C17.4507 57.0005 20.2861 57 24 57V55ZM-1 32C-1 35.7139 -1.00054 38.5493 -0.84544 40.8226C-0.689725 43.1048 -0.373799 44.8933 0.294048 46.5056L2.14181 45.7402C1.59173 44.4122 1.29869 42.8668 1.14992 40.6864C1.00054 38.497 1 35.7412 1 32H-1ZM10.2597 53.8582C6.58433 52.3358 3.66422 49.4157 2.14181 45.7402L0.294048 46.5056C2.01945 50.6711 5.3289 53.9806 9.49438 55.706L10.2597 53.8582ZM155 32C155 35.7412 154.999 38.497 154.85 40.6864C154.701 42.8668 154.408 44.4122 153.858 45.7402L155.706 46.5056C156.374 44.8933 156.69 43.1048 156.845 40.8226C157.001 38.5493 157 35.7139 157 32H155ZM132 57C135.714 57 138.549 57.0005 140.823 56.8454C143.105 56.6897 144.893 56.3738 146.506 55.706L145.74 53.8582C144.412 54.4083 142.867 54.7013 140.686 54.8501C138.497 54.9995 135.741 55 132 55V57ZM153.858 45.7402C152.336 49.4157 149.416 52.3358 145.74 53.8582L146.506 55.706C150.671 53.9806 153.981 50.6711 155.706 46.5056L153.858 45.7402ZM132 1C135.741 1 138.497 1.00054 140.686 1.14992C142.867 1.29869 144.412 1.59173 145.74 2.14181L146.506 0.294048C144.893 -0.373799 143.105 -0.689725 140.823 -0.84544C138.549 -1.00054 135.714 -1 132 -1V1ZM157 24C157 20.2861 157.001 17.4507 156.845 15.1774C156.69 12.8952 156.374 11.1067 155.706 9.49438L153.858 10.2597C154.408 11.5878 154.701 13.1332 154.85 15.3136C154.999 17.503 155 20.2588 155 24H157ZM145.74 2.14181C149.416 3.66422 152.336 6.58433 153.858 10.2597L155.706 9.49438C153.981 5.3289 150.671 2.01945 146.506 0.294048L145.74 2.14181ZM24 -1C20.2861 -1 17.4507 -1.00054 15.1774 -0.84544C12.8952 -0.689725 11.1067 -0.373799 9.49438 0.294048L10.2597 2.14181C11.5878 1.59173 13.1332 1.29869 15.3136 1.14992C17.503 1.00054 20.2588 1 24 1V-1ZM1 24C1 20.2588 1.00054 17.503 1.14992 15.3136C1.29869 13.1332 1.59173 11.5878 2.14181 10.2597L0.294048 9.49438C-0.373799 11.1067 -0.689725 12.8952 -0.84544 15.1774C-1.00054 17.4507 -1 20.2861 -1 24H1ZM9.49438 0.294048C5.3289 2.01945 2.01945 5.3289 0.294048 9.49438L2.14181 10.2597C3.66422 6.58433 6.58433 3.66422 10.2597 2.14181L9.49438 0.294048Z" fill="#E5E7EB"/>
<defs>
<clipPath id="clip0_1_1172">
<rect width="19.5185" height="23.2091" fill="white" transform="translate(68.2407 16.3954)"/>
</clipPath>
</defs>
</svg>
