<svg width="155" height="56" viewBox="0 0 155 56" fill="none" xmlns="http://www.w3.org/2000/svg">
<g clip-path="url(#clip0_1_1171)">
<path d="M71.0467 30.4182L70.2397 33.4306L67.2904 33.493C66.409 31.8582 65.9091 29.9877 65.9091 28.0001C65.9091 26.078 66.3765 24.2655 67.2051 22.6695H67.2057L69.8314 23.1509L70.9816 25.7609C70.7409 26.4627 70.6097 27.2161 70.6097 28.0001C70.6098 28.8509 70.7639 29.6661 71.0467 30.4182Z" fill="#FBBB00"/>
<path d="M88.8883 25.8344C89.0214 26.5356 89.0908 27.2597 89.0908 27.9998C89.0908 28.8296 89.0036 29.6391 88.8374 30.4199C88.2731 33.0769 86.7988 35.3969 84.7564 37.0388L84.7557 37.0381L81.4485 36.8694L80.9804 33.9474C82.3357 33.1527 83.3948 31.9088 83.9527 30.4199H77.7547V25.8344H84.0431H88.8883Z" fill="#518EF8"/>
<path d="M84.7553 37.0384L84.7559 37.0391C82.7696 38.6357 80.2463 39.591 77.4995 39.591C73.0854 39.591 69.2477 37.1238 67.2899 33.493L71.0462 30.4182C72.025 33.0306 74.5451 34.8903 77.4995 34.8903C78.7694 34.8903 79.9591 34.547 80.9799 33.9477L84.7553 37.0384Z" fill="#28B446"/>
<path d="M84.8983 19.0775L81.1434 22.1517C80.0868 21.4912 78.8379 21.1097 77.4999 21.1097C74.4786 21.1097 71.9114 23.0547 70.9816 25.7608L67.2056 22.6694H67.205C69.1341 18.9502 73.0202 16.4091 77.4999 16.4091C80.3123 16.4091 82.8909 17.4109 84.8983 19.0775Z" fill="#F14336"/>
</g>
<path d="M9.87706 54.7821L9.49438 55.706L9.87706 54.7821ZM153.782 46.1229L152.858 45.7402L153.782 46.1229ZM145.123 54.7821L144.74 53.8582L145.123 54.7821ZM145.123 1.21793L144.74 2.14181L145.123 1.21793ZM153.782 9.87706L152.858 10.2597L153.782 9.87706ZM24 1H131V-1H24V1ZM154 24V32H156V24H154ZM131 55H24V57H131V55ZM1 32V24H-1V32H1ZM24 55C20.2588 55 17.503 54.9995 15.3136 54.8501C13.1332 54.7013 11.5878 54.4083 10.2597 53.8582L9.49438 55.706C11.1067 56.3738 12.8952 56.6897 15.1774 56.8454C17.4507 57.0005 20.2861 57 24 57V55ZM-1 32C-1 35.7139 -1.00054 38.5493 -0.84544 40.8226C-0.689725 43.1048 -0.373799 44.8933 0.294048 46.5056L2.14181 45.7402C1.59173 44.4122 1.29869 42.8668 1.14992 40.6864C1.00054 38.497 1 35.7412 1 32H-1ZM10.2597 53.8582C6.58433 52.3358 3.66422 49.4157 2.14181 45.7402L0.294048 46.5056C2.01945 50.6711 5.3289 53.9806 9.49438 55.706L10.2597 53.8582ZM154 32C154 35.7412 153.999 38.497 153.85 40.6864C153.701 42.8668 153.408 44.4122 152.858 45.7402L154.706 46.5056C155.374 44.8933 155.69 43.1048 155.845 40.8226C156.001 38.5493 156 35.7139 156 32H154ZM131 57C134.714 57 137.549 57.0005 139.823 56.8454C142.105 56.6897 143.893 56.3738 145.506 55.706L144.74 53.8582C143.412 54.4083 141.867 54.7013 139.686 54.8501C137.497 54.9995 134.741 55 131 55V57ZM152.858 45.7402C151.336 49.4157 148.416 52.3358 144.74 53.8582L145.506 55.706C149.671 53.9806 152.981 50.6711 154.706 46.5056L152.858 45.7402ZM131 1C134.741 1 137.497 1.00054 139.686 1.14992C141.867 1.29869 143.412 1.59173 144.74 2.14181L145.506 0.294048C143.893 -0.373799 142.105 -0.689725 139.823 -0.84544C137.549 -1.00054 134.714 -1 131 -1V1ZM156 24C156 20.2861 156.001 17.4507 155.845 15.1774C155.69 12.8952 155.374 11.1067 154.706 9.49438L152.858 10.2597C153.408 11.5878 153.701 13.1332 153.85 15.3136C153.999 17.503 154 20.2588 154 24H156ZM144.74 2.14181C148.416 3.66422 151.336 6.58433 152.858 10.2597L154.706 9.49438C152.981 5.3289 149.671 2.01945 145.506 0.294048L144.74 2.14181ZM24 -1C20.2861 -1 17.4507 -1.00054 15.1774 -0.84544C12.8952 -0.689725 11.1067 -0.373799 9.49438 0.294048L10.2597 2.14181C11.5878 1.59173 13.1332 1.29869 15.3136 1.14992C17.503 1.00054 20.2588 1 24 1V-1ZM1 24C1 20.2588 1.00054 17.503 1.14992 15.3136C1.29869 13.1332 1.59173 11.5878 2.14181 10.2597L0.294048 9.49438C-0.373799 11.1067 -0.689725 12.8952 -0.84544 15.1774C-1.00054 17.4507 -1 20.2861 -1 24H1ZM9.49438 0.294048C5.3289 2.01945 2.01945 5.3289 0.294048 9.49438L2.14181 10.2597C3.66422 6.58433 6.58433 3.66422 10.2597 2.14181L9.49438 0.294048Z" fill="#E5E7EB"/>
<defs>
<clipPath id="clip0_1_1171">
<rect width="23.1818" height="23.1818" fill="white" transform="translate(65.9091 16.4091)"/>
</clipPath>
</defs>
</svg>
